,
Brought to you by  http://www.scenetime.com/signup.php
 
 Hottest scene tracker on the net !!!   
 
No fake torrents from scenebalance 
shame on those who comment fake before downloading my torrents

    seed back for speed


 



...................................NFO:.................................................[pre][img]http://i824.photobucket.com/albums/zz161/akosipalos/secondsapartcover.jpg[/img]   
            
*******************************************************************************
               Seconds.Apart.2011.COMPLETE.DVDRip.XviD.AC3-PRESTiGE
*******************************************************************************

-------------------------------------------------------------------------------
                              General Information
-------------------------------------------------------------------------------

TiTLE............: Seconds.Apart.2011.COMPLETE.DVDRip.XviD.AC3-PRESTiGE

iMDB.............: http://www.imdb.com/title/tt1601475/

GENRE............: Horror | Thriller

LANGUAGE.........: English

SOURCE...........: DVD5-IGUANA :bow: MANY THANKS!!

FiLE SiZE........: 700MB

SUBS.............: English Subs (If needed)

DURATiON.........: 1h 28mn

ENCODED by.......: akosipalos



ViDEO iNFO:

ID                               : 0
Format                           : MPEG-4 Visual
Format profile                   : Advanced Simple@L5
Format settings, BVOP            : Yes
Format settings, QPel            : No
Format settings, GMC             : No warppoints
Format settings, Matrix          : Custom
Codec ID                         : XVID
Codec ID/Hint                    : XviD
Duration                         : 1h 28mn
Bit rate                         : 648 Kbps
Width                            : 720 pixels
Height                           : 416 pixels
Display aspect ratio             : 16:9
Frame rate                       : 23.976 fps
Color space                      : YUV
Chroma subsampling               : 4:2:0
Bit depth                        : 8 bits
Scan type                        : Progressive
Bits/(Pixel*Frame)               : 0.090
Stream size                      : 411 MiB (59%)
Writing library                  : XviD 58


AUDiO iNFO:

ID                               : 1
Format                           : AC-3
Format/Info                      : Audio Coding 3
Mode extension                   : CM (complete main)
Codec ID                         : 2000
Duration                         : 1h 28mn
Bit rate mode                    : Constant
Bit rate                         : 448 Kbps
Channel(s)                       : 6 channels
Channel positions                : Front: L C R, Side: L R, LFE
Sampling rate                    : 48.0 KHz
Bit depth                        : 16 bits
Stream size                      : 285 MiB (41%)
Alignment                        : Split accross interleaves
Interleave, duration             : 96 ms (2.30 video frames)
Interleave, preload duration     : 96 ms
Language                         : English



-------------------------------------------------------------------------------
                                 PLOT:
-------------------------------------------------------------------------------


Seth and Jonah are twins with a dangerous ability. Telekinesis. Things start to spiral out of their control as their classmates end up dying in twisted and bizarre ways. The police suspect them. But, jealousy begins to divide them and soon they can no longer trust each other. Leading up to a horrific battle against themselves.


-------------------------------------------------------------------------------
                                 CAST:
-------------------------------------------------------------------------------


Orlando Jones 

Edmund Entin 

Gary Entin



-------------------------------------------------------------------------------
                               SCREENS:
-------------------------------------------------------------------------------


[img]http://i824.photobucket.com/albums/zz161/akosipalos/sec1.png[/img]

[img]http://i824.photobucket.com/albums/zz161/akosipalos/sec2.png[/img]

[img]http://i824.photobucket.com/albums/zz161/akosipalos/sec3.png[/img]

[img]http://i824.photobucket.com/albums/zz161/akosipalos/sec4.png[/img]

[img]http://i824.photobucket.com/albums/zz161/akosipalos/sec5.png[/img]


-------------------------------------------------------------------------------
                             Release Notes
-------------------------------------------------------------------------------


PRESTiGE - IS LOOKING FOR?: CAMMER'S, AUDIO SUPPLIERS, SYNCER'S, RETAIL
SUPPLIER'S, SILVER'S, SCREENER'S, LINE CAPPER'S

ENCODER'S - ANYTHING AT ALL EMAIL US AT..... prestige@hushmail.me

** ** ** ** ** ** ** ** **

PRESTiGE is the level of respect at which one is regarded by others....RIzE Above Or Sink Below...


-------------------------------------------------------------------------------
                                 GREETZ:
-------------------------------------------------------------------------------


twisted ,bigguy, CTFX, HiTM4N, smelise.paranoid53, mtyy, fifer, akosipalos, DiLLoN, imagine,"the squad" , floridajoe and To All Encoders Past And Present...


-------------------------------------------------------------------------------
Generated with Cool NFO Creator - http://fly.to/coolbeans
-------------------------------------------------------------------------------
[/pre]